<svg version="1.2" baseProfile="tiny-ps" xmlns="http://www.w3.org/2000/svg" viewBox="0 0 1410 1382" width="1410" height="1382">
	<title>bg-mob-svg</title>
	<style>
		tspan { white-space:pre }
		.shp0 { fill: #193787 } 
		.shp1 { opacity: 0.502;fill: #00b4f0 } 
	</style>
	<path id="Layer" class="shp0" d="M1410 283.64L1168.75 1130.65L927.49 1130.65L1168.75 283.64L1410 283.64Z" />
	<path id="Layer" class="shp0" d="M1055.72 283.64L1168.75 1130.65L927.49 1130.65L814.47 283.64L1055.72 283.64Z" />
	<path id="Layer" class="shp0" d="M1055.72 283.64L814.47 1382L573.28 1382L814.47 283.64L1055.72 283.64Z" />
	<path id="Layer" class="shp0" d="M752.23 0L814.47 1382L573.28 1382L511.04 0L752.23 0Z" />
	<path id="Layer" class="shp0" d="M752.23 0L511.04 1204.76L269.79 1204.76L511.04 0L752.23 0Z" />
	<path id="Layer" class="shp0" d="M487.65 425.99L511.04 1204.77L269.79 1204.77L246.39 425.99L487.65 425.99Z" />
	<path id="Layer" class="shp0" d="M487.65 425.99L75.25 1382L-166 1382L284.08 425.99L487.65 425.99Z" />
	<path id="Layer" fill-rule="evenodd" class="shp1" d="M703.07 981.65C703.07 981.65 556.14 908.86 556.14 792.44L556.14 633.57L850 633.57L850 792.44C850 908.86 703.07 981.65 703.07 981.65ZM835.1 792.44L835.1 645.99L571.04 645.99L571.04 792.44C571.04 891.52 681.24 955.65 703.07 967.49C724.9 955.36 835.1 891.23 835.1 792.44Z" />
	<path id="Layer" class="shp1" d="M715.54 912.9L728.36 912.9C726.97 924.74 716.58 930.23 704.1 930.23C688.16 930.23 677.76 920.99 677.76 908.27C677.76 893.83 689.2 885.17 704.1 885.17C717.27 885.17 726.63 890.65 728.01 901.92L714.84 901.92C713.8 897.01 710.34 894.41 704.45 894.41C696.82 894.41 692.32 899.03 692.32 907.41C692.32 917.23 696.82 921.27 704.79 921.27C710.34 921.27 714.84 918.38 715.54 912.9Z" />
	<path id="Layer" fill-rule="evenodd" class="shp1" d="M821.92 786.37C821.92 786.37 803.9 806.88 781.03 806.88C765.78 806.88 753.65 798.5 746.72 792.44L712.76 792.44L720.04 834.61C722.12 846.46 732.51 850.5 735.28 851.37L744.99 851.37L744.99 863.79L661.47 863.79L661.47 851.37L670.83 851.37C673.6 850.5 684 846.46 686.08 834.61L693.35 792.44L659.74 792.44C652.81 798.79 640.33 806.88 625.43 806.88C601.87 806.88 584.54 786.37 584.54 786.37C584.54 786.37 601.52 765.58 625.43 765.58C639.99 765.58 652.46 773.95 659.74 780.02L685.38 780.02L656.27 755.75C645.88 756.04 629.94 754.31 619.54 745.64C602.91 731.78 608.45 707.23 608.45 707.23C608.45 707.23 637.56 702.6 654.54 716.76C664.94 725.42 666.67 738.71 666.67 747.09L695.78 771.35L695.78 730.91C688.15 725.13 678.45 714.74 678.45 702.31C678.45 682.96 703.06 668.52 703.06 668.52C703.06 668.52 728.01 682.67 728.01 702.31C728.01 714.74 717.61 725.13 710.68 730.91L710.68 771.35L739.79 747.09C739.79 738.42 741.52 725.13 751.92 716.76C768.9 702.6 798.01 707.23 798.01 707.23C798.01 707.23 803.55 731.78 786.57 745.64C775.83 754.31 760.23 756.04 750.18 755.75L721.08 780.02L746.72 780.02C753.65 773.66 766.13 765.58 781.03 765.58C804.24 765.58 821.92 786.37 821.92 786.37ZM754.34 743.33C760.58 743.04 769.94 741.6 775.83 736.69C781.72 732.07 783.45 723.98 783.8 718.78C777.56 719.07 768.21 720.51 762.31 725.42C756.08 730.04 754.69 738.13 754.34 743.33ZM651.08 743.33C650.73 738.13 649.34 730.33 643.45 725.42C637.56 720.51 628.2 719.07 621.97 718.78C622.31 723.98 623.7 731.78 629.59 736.69C635.48 741.6 644.84 743.04 651.08 743.33ZM645.53 786.08C640.68 782.62 633.06 778 624.74 778C616.42 778 608.45 782.33 603.95 786.08C608.45 789.55 616.42 794.17 624.74 794.17C633.06 794.17 640.68 789.84 645.53 786.08ZM702.71 719.65C706.87 715.6 712.41 709.25 712.41 702.02C712.41 695.09 707.21 688.74 702.71 684.69C698.9 688.74 693.01 695.09 693.01 702.02C693.01 708.96 698.55 715.6 702.71 719.65ZM712.41 851.37C705.48 843.28 705.83 836.35 703.75 822.19L701.67 822.19C699.59 836.35 699.59 843.28 693.01 851.37L712.41 851.37ZM801.82 786.08C796.97 782.62 789.34 778 781.03 778C772.71 778 764.74 782.62 760.23 786.08C764.74 789.55 772.71 794.17 781.03 794.17C789.34 794.17 796.97 789.84 801.82 786.08Z" />
</svg>