<svg version="1.2" baseProfile="tiny-ps" xmlns="http://www.w3.org/2000/svg" viewBox="0 0 1410 1382" width="1410" height="1382">
	<title>bg-mob-new-svg</title>
	<style>
		tspan { white-space:pre }
		.shp0 { fill: #193787 } 
		.shp1 { opacity: 0.502;fill: #00b4f0 } 
	</style>
	<path id="Layer" class="shp0" d="M1410 283.64L1168.75 1130.65L927.49 1130.65L1168.75 283.64L1410 283.64Z" />
	<path id="Layer" class="shp0" d="M1055.72 283.64L1168.75 1130.65L927.49 1130.65L814.47 283.64L1055.72 283.64Z" />
	<path id="Layer" class="shp0" d="M1055.72 283.64L814.47 1382L573.28 1382L814.47 283.64L1055.72 283.64Z" />
	<path id="Layer" class="shp0" d="M752.23 0L814.47 1382L573.28 1382L511.04 0L752.23 0Z" />
	<path id="Layer" class="shp0" d="M752.23 0L511.04 1204.76L269.79 1204.76L511.04 0L752.23 0Z" />
	<path id="Layer" class="shp0" d="M487.65 425.99L511.04 1204.77L269.79 1204.77L246.39 425.99L487.65 425.99Z" />
	<path id="Layer" class="shp0" d="M487.65 425.99L75.25 1382L-166 1382L284.08 425.99L487.65 425.99Z" />
	<path id="Layer" fill-rule="evenodd" class="shp1" d="M825.97 786.33C825.97 898.17 708.49 968.25 708.49 968.25C708.49 968.25 591 898.17 591 786.33L591 633.68L826 633.68L826 786.33L825.97 786.33ZM708.51 954.51C726.08 943.05 814.06 881.38 814.06 786.36L814.06 645.7L602.97 645.7L602.97 786.33C602.97 881.36 690.98 943.02 708.51 954.49L708.51 954.51Z" />
	<path id="Layer" class="shp1" d="M718.54 902.09L728.71 902.09C727.66 913.41 719.32 918.74 709.32 918.74C706.51 918.87 703.71 918.41 701.1 917.39C698.48 916.37 696.11 914.81 694.13 912.81C692.16 910.81 690.63 908.42 689.63 905.79C688.64 903.15 688.21 900.34 688.37 897.54C688.37 883.66 697.49 875.33 709.43 875.33C719.96 875.33 727.49 880.63 728.54 891.49L717.93 891.49C717.89 890.46 717.63 889.46 717.18 888.53C716.73 887.61 716.1 886.79 715.32 886.13C714.54 885.46 713.63 884.96 712.65 884.66C711.67 884.36 710.64 884.26 709.62 884.38C703.67 884.38 699.9 888.88 699.9 896.87C699.9 906.31 703.5 910.16 709.82 910.16C710.93 910.23 712.04 910.07 713.08 909.69C714.13 909.32 715.09 908.74 715.91 907.99C716.73 907.23 717.39 906.32 717.85 905.31C718.31 904.3 718.57 903.2 718.6 902.09L718.54 902.09Z" />
	<path id="Layer" fill-rule="evenodd" class="shp1" d="M803.39 780.64C803.39 780.64 789.15 800.26 770.84 800.26C758.65 800.26 748.93 792.24 743.39 786.38L716.19 786.38L722.03 826.9C722.41 830.44 723.74 833.81 725.9 836.64C728.05 839.47 730.94 841.65 734.25 842.95L741.87 842.95L741.87 854.91L674.99 854.91L674.99 842.72L682.39 842.72C685.7 841.43 688.59 839.25 690.74 836.42C692.89 833.59 694.23 830.22 694.61 826.68L700.45 786.16L673.5 786.16C667.93 792.13 657.98 800.04 646.04 800.04C627.35 800.04 613.49 780.42 613.49 780.42C613.49 780.42 626.96 760.55 646.04 760.55C657.73 760.55 667.65 768.57 673.5 774.42L694.11 774.42L670.89 750.8C662.75 751.05 649.95 749.44 641.64 741.12C628.42 727.88 632.75 704.18 632.75 704.18C632.75 704.18 656.13 699.82 669.62 713.34C678.01 721.5 679.29 734.24 679.29 742.39L702.7 765.85L702.7 726.99C696.74 721.41 688.84 711.45 688.84 699.49C688.84 680.92 708.49 667.38 708.49 667.38C708.49 667.38 728.32 680.89 728.32 699.74C728.32 711.7 720.01 721.69 714.47 727.24L714.47 766.1L737.88 742.56C737.88 734.4 739.24 721.66 747.55 713.5C761.01 700.01 784.42 704.35 784.42 704.35C784.42 704.35 788.77 728.05 775.28 741.28C766.88 749.69 754.42 751.22 746.27 750.97L722.86 774.42L743.47 774.42C749.04 768.46 758.99 760.55 770.93 760.55C789.49 760.55 803.39 780.64 803.39 780.64ZM755.91 721.94C751.09 726.52 749.79 734.15 749.54 739.01C754.61 738.73 761.98 737.21 766.83 732.63C771.67 728.05 772.95 720.41 773.2 715.31C768.13 715.59 760.48 716.86 755.91 721.69L755.91 721.94ZM667.15 739.17C666.9 734.1 665.88 726.71 661.06 721.86C656.24 717 648.87 715.72 643.77 715.47C644.02 720.55 645.3 728.21 649.87 732.79C654.69 737.73 662.08 739.01 667.15 739.17ZM662.66 780.39C658.76 777.09 652.66 772.76 646.04 772.76C639.71 773.23 633.79 776.05 629.42 780.67C633.08 783.97 639.42 788.3 646.04 788.3C652.66 788.3 658.76 783.86 662.66 780.39ZM708.37 716.31C711.95 712.48 716.27 706.2 716.27 699.49C716.27 692.77 711.95 686.67 708.37 682.84C705.05 686.75 700.48 692.86 700.48 699.49C700.48 706.15 705.05 712.5 708.37 716.31ZM716.13 842.95C710.53 835.04 710.78 828.43 709.26 814.91L707.49 814.91C705.96 828.43 705.96 835.04 700.62 842.95L716.13 842.95ZM787.55 780.67C783.64 777.09 777.63 772.76 770.93 772.76C764.22 772.76 757.88 777.09 754.3 780.39C758.67 785.01 764.6 787.83 770.93 788.3C777.49 788.3 783.64 783.86 787.55 780.67Z" />
</svg>