<svg width="196" height="55" viewBox="0 0 196 55" fill="none" xmlns="http://www.w3.org/2000/svg">
<path d="M47.5076 22.1324H51.0961C53.1136 22.1324 54.1382 22.9582 54.1382 24.5687C54.1382 25.6774 53.6828 26.3252 52.6536 26.6218C53.8377 26.8727 54.4752 27.5662 54.4752 28.8209C54.4752 30.6458 53.4096 31.4945 51.2874 31.4945H47.5076V22.1324ZM49.525 23.5787V25.983H50.7637C51.7747 25.983 52.1618 25.6135 52.1618 24.774C52.1618 23.9345 51.7292 23.5787 50.75 23.5787H49.525ZM49.525 27.3426V30.0299H50.9504C51.9751 30.0299 52.4214 29.5417 52.4214 28.7023C52.4214 27.7898 51.966 27.3335 50.8366 27.3335H49.525V27.3426ZM62.1078 24.6417V31.4853H60.2589V30.436C60.0667 30.8276 59.7629 31.1533 59.3858 31.3718C59.0092 31.5903 58.5757 31.6917 58.1412 31.6633C56.5837 31.6633 55.8642 30.5135 55.8642 29.0809V24.6417H57.7086V28.7889C57.7086 29.7014 58.0957 30.1577 58.8744 30.1577C59.6532 30.1577 60.2406 29.6558 60.2406 28.6384V24.6234H62.085L62.1078 24.6417ZM63.4467 29.3547H65.1635C65.2501 29.9615 65.5233 30.3128 66.3476 30.3128C67.0671 30.3128 67.3996 30.0482 67.3996 29.5737C67.3996 29.0992 67.0125 28.8939 66.0334 28.7616C65.3507 28.7053 64.694 28.4709 64.1298 28.0818C63.9239 27.9024 63.7641 27.6762 63.6634 27.4222C63.5628 27.1682 63.5245 26.8938 63.5514 26.6218C63.5514 25.1299 65.0087 24.482 66.2019 24.482C67.6728 24.482 68.784 25.0706 68.9707 26.6081H67.2721C67.2616 26.4828 67.2256 26.361 67.1659 26.2504C67.1067 26.1397 67.0248 26.0425 66.926 25.965C66.8271 25.8875 66.7137 25.8312 66.5921 25.7998C66.4705 25.7683 66.3439 25.7624 66.2201 25.7823C65.6144 25.7823 65.2683 26.0789 65.2683 26.4895C65.2683 26.9001 65.5871 27.0963 66.5662 27.2423C67.9916 27.4476 69.162 27.8491 69.162 29.3821C69.162 30.915 68.1237 31.6633 66.3521 31.6633C64.5806 31.6633 63.4968 30.8512 63.4421 29.3821L63.4467 29.3547ZM70.3961 22.6799C70.3925 22.4707 70.4512 22.2651 70.5646 22.0894C70.678 21.9137 70.841 21.7758 71.0328 21.6932C71.2245 21.6107 71.4367 21.5872 71.6421 21.6258C71.847 21.6644 72.0365 21.7633 72.1854 21.9099C72.3343 22.0565 72.4363 22.2443 72.4782 22.4492C72.5206 22.6541 72.5005 22.867 72.4217 23.0606C72.3425 23.2542 72.2077 23.4199 72.0342 23.5366C71.8611 23.6532 71.6571 23.7155 71.4481 23.7155C71.3101 23.7205 71.1726 23.6973 71.0442 23.6472C70.9153 23.5972 70.7982 23.5214 70.6999 23.4244C70.601 23.3275 70.5236 23.2115 70.4713 23.0835C70.4193 22.9555 70.3934 22.8181 70.3961 22.6799ZM72.3726 24.6417V31.4853H70.551V24.6417H72.3726ZM76.0932 24.6417V25.7321C76.2972 25.3356 76.6115 25.0064 76.9972 24.7839C77.3834 24.5614 77.8251 24.455 78.27 24.4774C78.5683 24.4666 78.8662 24.5174 79.144 24.6265C79.4222 24.7355 79.6749 24.9007 79.8867 25.1116C80.3467 25.6802 80.573 26.403 80.5197 27.1328V31.4899H78.6571V27.3837C78.6571 26.4393 78.2974 26.015 77.4731 26.015C76.6488 26.015 76.1069 26.5169 76.1069 27.5206V31.4762H74.2488V24.6326H76.1069L76.0932 24.6417ZM88.5348 29.3364C88.3208 30.8147 87.1686 31.6176 85.347 31.6176C84.8829 31.6433 84.4189 31.5707 83.9844 31.4047C83.5504 31.2387 83.1561 30.983 82.8268 30.6542C82.498 30.3254 82.2416 29.9309 82.0745 29.4963C81.9078 29.0618 81.8345 28.5969 81.8586 28.1319C81.8586 25.8507 83.3022 24.4546 85.3015 24.4546C87.4191 24.4546 88.5576 25.9602 88.5576 27.954V28.4696H83.7303C83.7895 29.6193 84.377 30.258 85.4016 30.258C86.2669 30.258 86.6859 29.8885 86.7997 29.3136H88.5439L88.5348 29.3364ZM85.306 25.796C84.4681 25.796 83.9079 26.3572 83.7622 27.3335H86.7587C86.6859 26.2842 86.1804 25.796 85.3015 25.796H85.306ZM89.4593 29.3547H91.1762C91.2627 29.9615 91.5359 30.3128 92.3602 30.3128C93.0797 30.3128 93.4122 30.0482 93.4122 29.5737C93.4122 29.0992 93.0251 28.8939 92.046 28.7616C91.3633 28.7053 90.7066 28.4709 90.1424 28.0818C89.9365 27.9024 89.7767 27.6762 89.6761 27.4222C89.5754 27.1682 89.5372 26.8938 89.564 26.6218C89.564 25.1299 91.0213 24.482 92.2145 24.482C93.6854 24.482 94.7966 25.0706 94.9833 26.6081H93.2847C93.2742 26.4828 93.2382 26.361 93.1786 26.2504C93.1194 26.1397 93.0374 26.0425 92.9386 25.965C92.8397 25.8875 92.7263 25.8312 92.6047 25.7998C92.4832 25.7683 92.3566 25.7624 92.2327 25.7823C91.627 25.7823 91.2809 26.0789 91.2809 26.4895C91.2809 26.9001 91.5997 27.0963 92.5788 27.2423C94.0042 27.4476 95.1746 27.8491 95.1746 29.3821C95.1746 30.915 94.1363 31.6633 92.3648 31.6633C90.5932 31.6633 89.5094 30.8512 89.4547 29.3821L89.4593 29.3547ZM96.0899 29.3547H97.8068C97.8933 29.9615 98.1666 30.3128 98.9909 30.3128C99.7104 30.3128 100.043 30.0482 100.043 29.5737C100.043 29.0992 99.6558 28.8939 98.6766 28.7616C97.994 28.7053 97.3373 28.4709 96.7731 28.0818C96.5672 27.9024 96.4074 27.6762 96.3067 27.4222C96.2061 27.1682 96.1678 26.8938 96.1947 26.6218C96.1947 25.1299 97.652 24.482 98.8451 24.482C100.316 24.482 101.427 25.0706 101.614 26.6081H99.9153C99.9049 26.4828 99.8689 26.361 99.8092 26.2504C99.75 26.1397 99.668 26.0425 99.5692 25.965C99.4704 25.8875 99.357 25.8312 99.2354 25.7998C99.1138 25.7683 98.9872 25.7624 98.8633 25.7823C98.2577 25.7823 97.9116 26.0789 97.9116 26.4895C97.9116 26.9001 98.2303 27.0963 99.2095 27.2423C100.635 27.4476 101.805 27.8491 101.805 29.3821C101.805 30.915 100.767 31.6633 98.9954 31.6633C97.2239 31.6633 96.14 30.8512 96.0854 29.3821L96.0899 29.3547Z" fill="#EF5261"/>
<path d="M55.6503 11.7299C55.4362 14.0796 53.7604 15.2293 51.5517 15.2293C48.5961 15.2293 46.9521 13.4043 46.9521 10.4616C46.9521 7.64201 48.842 5.57523 51.5061 5.57523C53.7103 5.57523 55.3269 6.74321 55.5546 8.98792H53.4279C53.2685 7.85188 52.6765 7.25876 51.5107 7.25876C50.067 7.25876 49.1471 8.39481 49.1471 10.343C49.1471 12.4097 49.9987 13.5367 51.5243 13.5367C51.7794 13.5604 52.0367 13.5326 52.2812 13.4549C52.5253 13.3773 52.7516 13.2514 52.9466 13.0847C53.1415 12.9179 53.3009 12.7138 53.4156 12.4842C53.5304 12.2547 53.5982 12.0044 53.6146 11.7482H55.6457L55.6503 11.7299ZM56.889 6.25503C56.8876 6.11711 56.914 5.98037 56.9669 5.85295C57.0197 5.72552 57.0971 5.61 57.1955 5.51336C57.2934 5.41669 57.4104 5.34081 57.5384 5.29031C57.6664 5.2398 57.8034 5.21567 57.941 5.21936C58.1459 5.22205 58.3454 5.28547 58.5143 5.40163C58.6837 5.51774 58.8144 5.6814 58.8909 5.87197C58.9674 6.06254 58.9857 6.27146 58.9438 6.47248C58.9019 6.67345 58.8012 6.8575 58.655 7.00144C58.5088 7.14539 58.3235 7.24275 58.1222 7.28126C57.9209 7.31976 57.7123 7.29777 57.5238 7.21793C57.3348 7.13813 57.1736 7.00409 57.0607 6.83273C56.9477 6.66141 56.8881 6.46039 56.889 6.25503ZM58.8791 8.23512V15.0788H57.0347V8.23512H58.8928H58.8791ZM61.0104 13.0485V9.58104H60.1588V8.23969H61.0104V6.74777H62.8548V8.23969H64.2528V9.58104H62.8548V12.8751C62.8347 12.9794 62.8388 13.087 62.8671 13.1894C62.8957 13.2917 62.9477 13.386 63.0187 13.4648C63.0897 13.5436 63.1781 13.6047 63.2769 13.6433C63.3757 13.6819 63.4823 13.697 63.588 13.6872C63.8289 13.6971 64.0693 13.6567 64.2938 13.5686V15.0286C63.9318 15.151 63.5511 15.2112 63.169 15.2065C61.7572 15.2065 61.0058 14.4811 61.0058 13.053L61.0104 13.0485ZM65.0589 8.23512H67.0627L68.6794 12.3413L70.1776 8.23512H71.9628L68.3196 17.4056H66.5344L67.7185 14.3944L65.0498 8.23969L65.0589 8.23512Z" fill="#EF5261"/>
<path d="M47.2297 43.9269H49.2062C49.3929 45.0493 49.9713 45.4645 51.0278 45.4645C51.9386 45.4645 52.5261 44.9489 52.5261 44.2235C52.5261 43.2471 51.5469 43.1148 50.8092 42.9962C48.9648 42.7453 47.5075 42.1841 47.5075 40.1447C47.5075 38.2695 49.2654 37.3707 50.8229 37.3707C52.8858 37.3707 54.0972 38.2832 54.252 40.1629H52.3348C52.2209 39.3371 51.7018 38.922 50.8046 38.922C49.9075 38.922 49.4384 39.3508 49.4384 39.985C49.4384 40.9614 50.4494 41.0754 51.1234 41.1804C52.9678 41.445 54.4797 41.9651 54.4797 44.0136C54.4797 45.9755 52.7219 46.9974 50.9914 46.9974C48.9147 46.9974 47.3481 46.085 47.2161 43.9269H47.2297ZM60.532 44.2509H62.2034C62.0303 46.1123 60.6596 46.9883 59.0156 46.9883C58.5547 47.0102 58.0943 46.9349 57.6639 46.7666C57.234 46.5987 56.8442 46.3423 56.5195 46.0133C56.1948 45.6848 55.9425 45.2915 55.7795 44.8589C55.6164 44.4263 55.5458 43.9643 55.5727 43.5026C55.5727 41.2214 57.071 39.8527 59.0338 39.8527C60.7643 39.8527 62.003 40.7241 62.176 42.508H60.4319C60.4241 42.3395 60.3822 42.1744 60.308 42.0228C60.2342 41.8713 60.1299 41.7366 60.0015 41.6271C59.8735 41.5176 59.7246 41.4356 59.5634 41.3862C59.4022 41.3368 59.2328 41.3211 59.0656 41.34C58.0865 41.34 57.4672 42.0792 57.4672 43.3931C57.4672 44.9444 58.0592 45.5785 59.0975 45.5785C59.2801 45.589 59.4628 45.5626 59.6349 45.5011C59.8066 45.4396 59.9646 45.3441 60.0994 45.2203C60.2342 45.0966 60.3426 44.947 60.4182 44.7804C60.4942 44.6139 60.5361 44.4339 60.5412 44.2509H60.532ZM63.5149 36.9145H65.373V41.0937C65.5784 40.6989 65.8926 40.3719 66.2788 40.1518C66.665 39.9317 67.1062 39.8278 67.5498 39.8527C69.1346 39.8527 69.7995 41.0617 69.7995 42.4943V46.8606H67.9415V42.7544C67.9415 41.81 67.5817 41.3857 66.7756 41.3857C65.9696 41.3857 65.3775 41.8738 65.3775 42.8913V46.8606H63.5195V36.9145H63.5149ZM82.6737 46.9974C82.2083 47.0234 81.7429 46.9514 81.3066 46.7857C80.8708 46.6206 80.4746 46.3651 80.1435 46.0366C79.812 45.7081 79.5533 45.3138 79.3834 44.8789C79.2136 44.444 79.1371 43.9783 79.158 43.5118C79.158 41.2807 80.6563 39.8618 82.6874 39.8618C83.1546 39.8384 83.6214 39.9131 84.0577 40.0813C84.4944 40.2494 84.8911 40.5072 85.2222 40.838C85.5532 41.1689 85.8115 41.5656 85.9804 42.0025C86.1494 42.4394 86.2254 42.9069 86.2031 43.3749C86.2031 45.6561 84.7185 47.0248 82.6737 47.0248V46.9974ZM82.6737 45.5648C83.712 45.5648 84.3177 44.7984 84.3177 43.4844C84.3177 42.0837 83.712 41.299 82.6737 41.299C81.6354 41.299 81.0434 42.0518 81.0434 43.3658C81.0434 44.7847 81.6035 45.5648 82.6737 45.5648ZM89.4774 36.8962V46.8606H87.6331V36.9145H89.4774V36.8962ZM74.6177 46.9792C74.1522 47.0052 73.6868 46.9331 73.2505 46.7675C72.8147 46.6023 72.4185 46.3468 72.0874 46.0183C71.7559 45.6898 71.4972 45.2956 71.3274 44.8606C71.1575 44.4257 71.081 43.96 71.1019 43.4935C71.1019 41.2625 72.6002 39.8436 74.6313 39.8436C75.0986 39.8201 75.5654 39.8948 76.0016 40.063C76.4384 40.2311 76.835 40.4889 77.1661 40.8198C77.4972 41.1507 77.7554 41.5473 77.9243 41.9842C78.0933 42.4212 78.1693 42.8886 78.147 43.3566C78.147 45.6378 76.6624 47.0066 74.6177 47.0066V46.9792ZM74.6177 45.5466C75.656 45.5466 76.2617 44.7801 76.2617 43.4661C76.2617 42.0655 75.656 41.2807 74.6177 41.2807C73.5793 41.2807 72.9873 42.0335 72.9873 43.3475C72.9873 44.7664 73.5475 45.5466 74.6177 45.5466Z" fill="#EF5261"/>
<path d="M38.6318 25.0933V0H0V25.0933C0 43.4799 19.3136 55 19.3136 55C19.3136 55 38.6273 43.4799 38.6273 25.0933H38.6318ZM19.3182 52.737C16.4355 50.8528 1.96735 40.7151 1.96735 25.0933V1.97553H36.669V25.0979C36.669 40.7196 22.2054 50.8573 19.3182 52.7416V52.737Z" fill="#EF5261"/>
<path d="M20.9669 44.1233H22.6382C22.4652 45.9847 21.0944 46.8607 19.4504 46.8607C18.9894 46.8826 18.5289 46.8073 18.0989 46.639C17.6688 46.4711 17.2788 46.2147 16.9542 45.8857C16.6296 45.5573 16.3776 45.1639 16.2145 44.7313C16.0514 44.2987 15.9809 43.8367 16.0076 43.375C16.0076 41.0938 17.5059 39.7251 19.4686 39.7251C21.1992 39.7251 22.4379 40.5965 22.6109 42.3804H20.8667C20.8591 42.2119 20.8169 42.0468 20.743 41.8952C20.6689 41.7437 20.5647 41.609 20.4366 41.4995C20.3085 41.39 20.1593 41.308 19.9983 41.2586C19.8373 41.2093 19.6678 41.1935 19.5005 41.2124C18.5214 41.2124 17.9021 41.9516 17.9021 43.2655C17.9021 44.8168 18.4941 45.4509 19.5324 45.4509C19.7148 45.4614 19.8975 45.4351 20.0695 45.3736C20.2416 45.312 20.3997 45.2165 20.5343 45.0927C20.6689 44.969 20.7773 44.8194 20.8532 44.6528C20.9291 44.4863 20.9708 44.3063 20.976 44.1233H20.9669Z" fill="#EF5261"/>
<path d="M29.5784 20.8551C27.6156 20.8551 25.9807 22.1554 25.0654 23.1363H21.6772L25.5253 19.2811C26.8642 19.3221 28.9135 19.0712 30.2934 17.6888C32.5112 15.5125 31.7962 11.6162 31.7962 11.6162C31.7962 11.6162 27.9481 10.9045 25.7348 13.1218C24.3686 14.4632 24.1455 16.5573 24.1455 17.8987L20.2973 21.7676V15.3802C21.2081 14.4677 22.5743 12.8253 22.5743 10.8588C22.5743 7.76096 19.3136 5.53906 19.3136 5.53906C19.3136 5.53906 16.0848 7.76552 16.0848 10.8178C16.0848 12.7842 17.3827 14.4221 18.3618 15.3391V21.7265L14.5137 17.8713C14.5137 16.5299 14.3042 14.4358 12.9243 13.0944C10.7065 10.8725 6.86293 11.5888 6.86293 11.5888C6.86293 11.5888 6.1525 15.4851 8.32477 17.6614C9.69098 19.0301 11.7949 19.2948 13.1338 19.2537L16.9501 23.1363H13.5619C12.601 22.1737 10.9707 20.8551 9.04886 20.8551C5.91113 20.8551 3.69788 24.1218 3.69788 24.1218C3.69788 24.1218 5.97489 27.3474 9.04886 27.3474C11.0116 27.3474 12.6465 26.0471 13.5619 25.0662H17.993L17.0321 31.7274C16.9705 32.309 16.7506 32.8626 16.3964 33.3276C16.0423 33.7926 15.5675 34.1513 15.0237 34.3644H13.8078V36.3673H24.8012V34.4009H23.5489C23.0052 34.1878 22.5303 33.8291 22.1762 33.3641C21.822 32.8991 21.6022 32.3455 21.5406 31.7639L20.5797 25.1027H25.0517C25.9625 26.0654 27.561 27.3839 29.5648 27.3839C32.575 27.3839 34.9157 24.1583 34.9157 24.1583C34.9157 24.1583 32.6296 20.8551 29.5784 20.8551ZM27.1101 14.4677C27.8615 13.6739 29.1185 13.464 29.9518 13.4184C29.9109 14.2579 29.7014 15.5125 28.9044 16.2653C28.1075 17.0181 26.8961 17.269 26.0627 17.3147C26.1037 16.5162 26.3177 15.2616 27.1101 14.5088V14.4677ZM9.67732 16.2927C8.9259 15.5399 8.71641 14.2807 8.67543 13.4457C9.51337 13.4868 10.7247 13.6967 11.5171 14.4951C12.3095 15.2935 12.478 16.5071 12.519 17.342C11.6856 17.3147 10.4697 17.1048 9.67732 16.2927ZM9.04886 25.4175C7.96045 25.4175 6.91757 24.7058 6.31644 24.1629C7.03384 23.4036 8.00822 22.94 9.04886 22.8626C10.1373 22.8626 11.1392 23.5743 11.7813 24.1172C11.1392 24.6875 10.1373 25.4175 9.04886 25.4175ZM17.9975 10.8178C17.9975 9.72737 18.7489 8.72363 19.2954 8.08033C19.8829 8.70995 20.5933 9.71368 20.5933 10.8178C20.5933 11.9219 19.8829 12.953 19.2954 13.5826C18.7489 12.9576 17.9975 11.9128 17.9975 10.8178ZM19.2727 34.4009H18.0203C18.8992 33.1007 18.8992 32.0148 19.1497 29.7929H19.4412C19.6916 32.0148 19.6506 33.1007 20.5706 34.4009H19.2727ZM29.5784 25.4175C28.5378 25.3402 27.5634 24.8764 26.846 24.1172C27.4335 23.5743 28.4763 22.8626 29.5784 22.8626C30.6805 22.8626 31.6687 23.5743 32.3108 24.1629C31.6687 24.6875 30.6577 25.4175 29.5784 25.4175Z" fill="#EF5261"/>
<path d="M145.574 21.8772V29.5238H149.399V30.856H143.903V21.8772H145.569H145.574Z" fill="#EF5261"/>
<path d="M150.178 27.644V27.5436C150.178 25.5088 151.572 24.1492 153.439 24.1492C155.069 24.1492 156.535 25.1164 156.535 27.4661V27.9223H151.731C151.781 29.177 152.396 29.8704 153.553 29.8704C154.463 29.8704 154.946 29.5055 155.06 28.8667H156.526C156.312 30.2628 155.21 31.0019 153.516 31.0019C153.069 31.0309 152.621 30.9639 152.202 30.8052C151.783 30.6466 151.403 30.3999 151.087 30.0819C150.77 29.7639 150.525 29.3819 150.369 28.9614C150.212 28.5409 150.147 28.0917 150.178 27.644ZM153.439 25.2578C152.528 25.2578 151.909 25.8738 151.758 26.8912H155.033C154.942 25.746 154.39 25.2578 153.439 25.2578Z" fill="#EF5261"/>
<path d="M158.767 24.2905L160.484 29.3092L162.178 24.2905H163.672L161.299 30.865H159.537L157.141 24.2905H158.772H158.767Z" fill="#EF5261"/>
<path d="M164.164 27.644V27.5436C164.164 25.5088 165.557 24.1492 167.424 24.1492C169.055 24.1492 170.521 25.1164 170.521 27.4661V27.9223H165.717C165.767 29.177 166.382 29.8704 167.538 29.8704C168.449 29.8704 168.932 29.5055 169.046 28.8667H170.512C170.298 30.2628 169.196 31.0019 167.502 31.0019C167.055 31.0309 166.607 30.9639 166.188 30.8052C165.769 30.6466 165.388 30.3999 165.072 30.0819C164.756 29.7639 164.511 29.3819 164.355 28.9614C164.198 28.5409 164.133 28.0917 164.164 27.644ZM167.424 25.2578C166.514 25.2578 165.894 25.8738 165.744 26.8912H169.018C168.927 25.746 168.376 25.2578 167.424 25.2578Z" fill="#EF5261"/>
<path d="M173.481 21.2471V30.8601H171.965V21.2471H173.481Z" fill="#EF5261"/>
<path d="M178.349 28.5016V24.2905H179.866V28.3237C179.866 29.3274 180.267 29.77 181.159 29.77C181.366 29.7803 181.573 29.7464 181.765 29.6706C181.958 29.5948 182.132 29.479 182.277 29.3306C182.422 29.1822 182.534 29.0047 182.605 28.8099C182.676 28.6151 182.704 28.4074 182.689 28.2005V24.2905H184.206V30.865H182.689V29.8339C182.487 30.2041 182.184 30.5091 181.816 30.7135C181.447 30.9179 181.028 31.0131 180.608 30.9882C179.301 30.9882 178.349 30.2445 178.349 28.5016Z" fill="#EF5261"/>
<path d="M187.571 24.2906V25.3445C187.799 24.9797 188.115 24.6787 188.49 24.4696C188.865 24.2606 189.287 24.1503 189.716 24.1492C191.36 24.1492 192.626 25.381 192.626 27.4934V27.5938C192.626 29.7062 191.41 30.9882 189.716 30.9882C189.288 31.01 188.861 30.9139 188.483 30.7104C188.105 30.507 187.79 30.2039 187.571 29.8339V33.1143H186.055V24.2906H187.571ZM191.069 27.6212V27.5208C191.069 26.0608 190.317 25.3445 189.325 25.3445C188.332 25.3445 187.503 26.0471 187.503 27.5208V27.6212C187.503 29.0903 188.218 29.7838 189.325 29.7838C190.431 29.7838 191.069 29.0401 191.069 27.6212Z" fill="#EF5261"/>
<path d="M193.979 29.9797C193.97 29.7773 194.022 29.5768 194.127 29.4042C194.233 29.2315 194.388 29.0946 194.572 29.0112C194.757 28.9277 194.962 28.9016 195.161 28.9361C195.361 28.9706 195.545 29.0642 195.69 29.2048C195.836 29.3454 195.936 29.5265 195.978 29.7247C196.02 29.923 196.001 30.1292 195.925 30.3168C195.848 30.5044 195.718 30.6647 195.55 30.7771C195.381 30.8894 195.183 30.9486 194.981 30.947C194.851 30.9494 194.723 30.9263 194.603 30.879C194.483 30.8317 194.373 30.7611 194.28 30.6713C194.187 30.5815 194.112 30.4742 194.061 30.3555C194.009 30.2368 193.981 30.1092 193.979 29.9797ZM195.846 21.8723L195.609 28.1548H194.38L194.147 21.8769H195.842L195.846 21.8723Z" fill="#EF5261"/>
<path d="M124.179 6.76123H123.232V48.2382H124.179V6.76123Z" fill="#EF5261"/>
</svg>
