<svg width="413" height="122" viewBox="0 0 413 122" fill="none" xmlns="http://www.w3.org/2000/svg">
<path d="M100.05 48.7242H107.628C111.849 48.7242 114.055 50.5281 114.055 54.0358C114.055 56.4409 113.096 57.9442 110.889 58.5456C113.383 59.1469 114.726 60.6502 114.726 63.356C114.726 67.3648 112.52 69.269 108.012 69.269H100.05V48.7242ZM104.271 51.831V57.1426H106.861C108.971 57.1426 109.834 56.3408 109.834 54.4366C109.834 52.6326 108.971 51.831 106.861 51.831H104.271ZM104.271 60.149V66.062H107.244C109.355 66.062 110.314 64.9595 110.314 63.1555C110.314 61.1512 109.355 60.149 106.957 60.149H104.271ZM130.842 54.2361V69.269H126.909V66.8637C126.142 68.367 124.798 69.5696 122.4 69.5696C119.139 69.5696 117.604 67.0641 117.604 63.8572V54.1359H121.537V63.2558C121.537 65.2602 122.4 66.2623 124.031 66.2623C125.662 66.2623 126.909 65.16 126.909 62.9552V54.1359H130.842V54.2361ZM133.528 64.5587H137.173C137.365 65.8615 137.941 66.6632 139.667 66.6632C141.201 66.6632 141.874 66.062 141.874 65.0598C141.874 64.0575 141.01 63.5565 138.995 63.2558C137.077 62.9552 135.83 62.5543 134.967 61.7525C134.103 61.051 133.72 60.0489 133.72 58.5456C133.72 55.2384 136.789 53.8353 139.283 53.8353C142.353 53.8353 144.751 55.1381 145.134 58.5456H141.586C141.393 57.3429 140.722 56.7416 139.379 56.7416C138.132 56.7416 137.365 57.3429 137.365 58.3451C137.365 59.3474 138.036 59.648 140.05 60.0489C143.024 60.5499 145.519 61.3517 145.519 64.7592C145.519 68.0663 143.312 69.77 139.571 69.77C135.926 69.5696 133.72 67.7656 133.528 64.5587ZM148.205 49.9268C148.205 48.624 149.164 47.6218 150.411 47.6218C151.658 47.6218 152.617 48.624 152.617 49.9268C152.617 51.2296 151.658 52.2318 150.411 52.2318C149.164 52.1316 148.205 51.2296 148.205 49.9268ZM152.424 54.2361V69.269H148.588V54.2361H152.424ZM160.195 54.2361V56.6414C160.961 55.1381 162.401 53.8353 164.799 53.8353C166.238 53.8353 167.389 54.3364 168.156 55.2384C169.02 56.1403 169.5 57.6436 169.5 59.6479V69.1686H165.567V60.149C165.567 58.0444 164.799 57.1426 163.073 57.1426C161.442 57.1426 160.195 58.2449 160.195 60.4497V69.1686H156.262V54.1359H160.195V54.2361ZM186.383 64.5587C185.903 67.7656 183.504 69.5696 179.667 69.5696C175.351 69.5696 172.281 66.4628 172.281 61.953C172.281 56.9421 175.351 53.8353 179.571 53.8353C184.08 53.8353 186.478 57.1426 186.478 61.5522V62.6545H176.31C176.405 65.16 177.653 66.563 179.859 66.563C181.682 66.563 182.545 65.7613 182.833 64.4585H186.383V64.5587ZM179.571 56.7416C177.844 56.7416 176.598 57.9442 176.31 60.149H182.641C182.545 57.8441 181.49 56.7416 179.571 56.7416ZM188.301 64.5587H191.946C192.137 65.8615 192.713 66.6632 194.44 66.6632C195.974 66.6632 196.646 66.062 196.646 65.0598C196.646 64.0575 195.782 63.5565 193.768 63.2558C191.849 62.9552 190.602 62.5543 189.74 61.7525C188.876 61.051 188.492 60.0489 188.492 58.5456C188.492 55.2384 191.561 53.8353 194.056 53.8353C197.126 53.8353 199.524 55.1381 199.907 58.5456H196.358C196.167 57.3429 195.494 56.7416 194.152 56.7416C192.905 56.7416 192.137 57.3429 192.137 58.3451C192.137 59.3474 192.809 59.648 194.823 60.0489C197.797 60.5499 200.291 61.3517 200.291 64.7592C200.291 68.0663 198.085 69.77 194.344 69.77C190.699 69.5696 188.492 67.7656 188.301 64.5587ZM202.305 64.5587H205.951C206.143 65.8615 206.717 66.6632 208.444 66.6632C209.979 66.6632 210.65 66.062 210.65 65.0598C210.65 64.0575 209.788 63.5565 207.773 63.2558C205.855 62.9552 204.608 62.5543 203.745 61.7525C202.881 61.051 202.498 60.0489 202.498 58.5456C202.498 55.2384 205.567 53.8353 208.061 53.8353C211.13 53.8353 213.529 55.1381 213.912 58.5456H210.364C210.171 57.3429 209.5 56.7416 208.157 56.7416C206.91 56.7416 206.143 57.3429 206.143 58.3451C206.143 59.3474 206.814 59.648 208.829 60.0489C211.802 60.5499 214.295 61.3517 214.295 64.7592C214.295 68.0663 212.089 69.77 208.349 69.77C204.608 69.5696 202.401 67.7656 202.305 64.5587Z" fill="white"/>
<path d="M117.22 25.8751C116.74 30.9859 113.287 33.5914 108.587 33.5914C102.352 33.5914 98.8984 29.5829 98.8984 23.0691C98.8984 16.8559 102.831 12.3464 108.491 12.3464C113.095 12.3464 116.548 14.9519 117.028 19.8624H112.52C112.232 17.357 110.985 16.0542 108.491 16.0542C105.421 16.0542 103.503 18.5595 103.503 22.8687C103.503 27.3782 105.325 29.8836 108.491 29.8836C110.889 29.8836 112.52 28.5808 112.903 25.9752H117.22V25.8751ZM119.81 13.8495C119.81 12.5468 120.769 11.5447 122.016 11.5447C123.263 11.5447 124.222 12.5468 124.222 13.8495C124.222 15.1524 123.263 16.1544 122.016 16.1544C120.769 16.1544 119.81 15.1524 119.81 13.8495ZM123.935 18.2589V33.2908H120.098V18.2589H123.935ZM128.443 28.7812V21.1651H126.62V18.2589H128.443V14.9519H132.376V18.2589H135.35V21.1651H132.376V28.3804C132.376 29.5829 132.856 30.1842 133.911 30.1842C134.486 30.1842 134.966 30.0839 135.446 29.8836V33.0903C134.87 33.2908 134.103 33.4913 133.048 33.4913C130.074 33.4913 128.443 31.8878 128.443 28.7812ZM136.98 18.2589H141.201L144.558 27.2781L147.724 18.2589H151.465L143.791 38.4016H140.05L142.543 31.7876L136.98 18.2589Z" fill="white"/>
<path d="M99.4742 96.5277H103.599C103.983 99.0332 105.23 99.9352 107.436 99.9352C109.354 99.9352 110.601 98.8327 110.601 97.2292C110.601 95.1246 108.491 94.824 106.956 94.5234C103.023 93.9221 100.05 92.7194 100.05 88.3098C100.05 84.2008 103.791 82.1965 107.052 82.1965C111.369 82.1965 113.959 84.2008 114.247 88.3098H110.218C109.93 86.5058 108.875 85.604 106.956 85.604C105.038 85.604 104.079 86.5058 104.079 87.9089C104.079 90.0134 106.189 90.3141 107.628 90.5146C111.561 91.1159 114.726 92.2183 114.726 96.728C114.726 101.037 110.985 103.242 107.34 103.242C103.023 103.342 99.7619 101.338 99.4742 96.5277ZM127.484 97.2292H131.033C130.65 101.338 127.772 103.242 124.319 103.242C119.906 103.242 117.028 100.035 117.028 95.6257C117.028 90.6148 120.194 87.6083 124.319 87.6083C127.964 87.6083 130.554 89.5124 130.937 93.4209H127.292C127.004 91.7172 126.045 90.8153 124.414 90.8153C122.304 90.8153 121.057 92.4187 121.057 95.3251C121.057 98.7325 122.304 100.136 124.51 100.136C126.045 100.236 127.292 99.2335 127.484 97.2292ZM133.719 81.1943H137.653V90.4144C138.419 88.9111 139.859 87.7085 142.257 87.7085C145.614 87.7085 146.957 90.4144 146.957 93.5211V103.142H143.119V94.1224C143.119 92.0179 142.352 91.1159 140.625 91.1159C138.9 91.1159 137.653 92.2183 137.653 94.4231V103.142H133.719V81.1943ZM174.104 103.342C169.883 103.342 166.717 100.336 166.717 95.7259C166.717 90.8153 169.883 87.7085 174.199 87.7085C178.517 87.7085 181.585 90.7151 181.585 95.4252C181.585 100.336 178.42 103.342 174.104 103.342ZM174.104 100.136C176.31 100.136 177.556 98.4319 177.556 95.5255C177.556 92.4187 176.31 90.7151 174.104 90.7151C171.993 90.7151 170.65 92.4187 170.65 95.2249C170.746 98.4319 171.898 100.136 174.104 100.136ZM188.492 81.1943V103.042H184.559V81.1943H188.492ZM157.125 103.342C152.904 103.342 149.738 100.336 149.738 95.7259C149.738 90.8153 152.904 87.7085 157.221 87.7085C161.537 87.7085 164.606 90.7151 164.606 95.4252C164.606 100.336 161.441 103.342 157.125 103.342ZM157.221 100.136C159.427 100.136 160.673 98.4319 160.673 95.5255C160.673 92.4187 159.427 90.7151 157.221 90.7151C155.11 90.7151 153.768 92.4187 153.768 95.2249C153.768 98.4319 154.918 100.136 157.221 100.136Z" fill="white"/>
<path d="M81.344 55.2392V0.120605H0V55.2392C0 95.6259 40.6719 120.88 40.6719 120.88C40.6719 120.88 81.344 95.6259 81.344 55.2392ZM40.6719 115.97C34.6287 111.861 4.12476 89.6129 4.12476 55.2392V4.42987H77.2192V55.2392C77.2192 89.5127 46.7152 111.761 40.6719 115.97Z" fill="white"/>
<path d="M44.1276 97.0272H47.6769C47.2932 101.136 44.4155 103.041 40.9622 103.041C36.5496 103.041 33.6719 99.8335 33.6719 95.4236C33.6719 90.4123 36.8374 87.4055 40.9622 87.4055C44.6073 87.4055 47.1973 89.3098 47.5809 93.2185H43.9358C43.6481 91.5147 42.6888 90.6128 41.0581 90.6128C38.9477 90.6128 37.7007 92.2164 37.7007 95.123C37.7007 98.5306 38.9477 99.9337 41.154 99.9337C42.6888 99.9337 43.9358 98.9315 44.1276 97.0272Z" fill="white"/>
<path d="M62.2553 45.9177C58.1305 45.9177 54.6771 48.7238 52.7587 50.9285H45.6603L53.718 42.5103C56.4998 42.6105 60.8163 42.0093 63.79 39.0028C68.4904 34.1924 66.9555 25.6741 66.9555 25.6741C66.9555 25.6741 58.8979 24.0706 54.1976 28.9812C51.3199 31.8875 50.8402 36.4974 50.8402 39.5038L42.7826 47.922V33.8917C44.701 31.8875 47.5788 28.2797 47.5788 23.9704C47.5788 17.1558 40.6722 12.2451 40.6722 12.2451C40.6722 12.2451 33.8617 17.2559 33.8617 23.9704C33.8617 28.2797 36.5475 31.8875 38.6578 33.8917V47.922L30.6002 39.5038C30.6002 36.5977 30.1205 31.9877 27.2428 28.9812C22.5425 24.0706 14.4849 25.6741 14.4849 25.6741C14.4849 25.6741 12.9501 34.1924 17.5544 39.0028C20.4322 42.0093 24.8447 42.6105 27.7224 42.5103L35.7801 50.9285H28.6816C26.6673 48.824 23.214 45.9177 19.1852 45.9177C12.5664 45.9177 7.86609 53.1333 7.86609 53.1333C7.86609 53.1333 12.6623 60.2486 19.1852 60.2486C23.3099 60.2486 26.7632 57.4425 28.6816 55.2378H37.9864L35.9719 69.8694C35.3964 73.9782 32.5186 75.3812 31.7513 75.6819H29.1614V79.9912H52.279V75.6819H49.5932C48.8259 75.3812 45.948 73.9782 45.3726 69.8694L43.3581 55.2378H52.7587C54.6771 57.3423 58.0345 60.2486 62.2553 60.2486C68.5863 60.2486 73.5743 53.1333 73.5743 53.1333C73.5743 53.1333 68.6822 45.9177 62.2553 45.9177ZM57.0753 31.9877C58.7061 30.284 61.296 29.7829 63.0226 29.6827C62.9267 31.4865 62.4471 34.2927 60.8163 35.896C59.1856 37.5998 56.5957 38.1008 54.8691 38.201C54.965 36.3972 55.3487 33.5912 57.0753 31.9877ZM20.3363 35.896C18.7055 34.1924 18.3219 31.4865 18.226 29.6827C19.9525 29.7829 22.5425 30.284 24.1733 31.9877C25.804 33.6914 26.1876 36.3972 26.2835 38.201C24.5569 38.1008 21.967 37.5998 20.3363 35.896ZM18.9933 55.8391C16.6912 55.8391 14.4849 54.2356 13.2379 53.0331C14.4849 51.7303 16.6912 50.227 18.9933 50.227C21.2955 50.227 23.4058 51.8305 24.7488 53.0331C23.4058 54.3358 21.2955 55.8391 18.9933 55.8391ZM37.8905 23.8702C37.8905 21.4651 39.5211 19.2603 40.5763 17.8573C41.8233 19.2603 43.2622 21.4651 43.2622 23.8702C43.2622 26.3756 41.7274 28.5804 40.5763 29.9834C39.4252 28.5804 37.8905 26.2754 37.8905 23.8702ZM40.5763 75.6819H37.8905C39.713 72.8757 39.713 70.4706 40.2886 65.5601H40.8641C41.4397 70.4706 41.3438 72.8757 43.2622 75.6819H40.5763ZM62.2553 55.8391C59.9531 55.8391 57.7468 54.2356 56.4998 53.0331C57.7468 51.8305 59.9531 50.227 62.2553 50.227C64.5574 50.227 66.6677 51.8305 68.0107 53.0331C66.6677 54.3358 64.5574 55.8391 62.2553 55.8391Z" fill="white"/>
<path d="M306.574 48.1223V64.9578H314.631V67.864H303.025V48.1223H306.574Z" fill="white"/>
<path d="M316.26 60.8517V60.6512C316.26 56.1413 319.234 53.2349 323.167 53.2349C326.621 53.2349 329.689 55.3395 329.689 60.5511V61.5532H319.617C319.714 64.3595 321.056 65.8628 323.455 65.8628C325.373 65.8628 326.428 65.061 326.621 63.6579H329.689C329.21 66.7648 326.907 68.3683 323.359 68.3683C319.138 68.1679 316.26 65.3617 316.26 60.8517ZM323.167 55.54C321.249 55.54 319.905 56.8428 319.617 59.1479H326.524C326.333 56.6423 325.182 55.54 323.167 55.54Z" fill="white"/>
<path d="M334.393 53.4331L338.038 64.4574L341.586 53.4331H344.752L339.764 67.865H336.023L330.939 53.4331H334.393Z" fill="white"/>
<path d="M345.711 60.8517V60.6512C345.711 56.1413 348.685 53.2349 352.616 53.2349C356.07 53.2349 359.14 55.3395 359.14 60.5511V61.5532H349.068C349.164 64.3595 350.507 65.8628 352.904 65.8628C354.823 65.8628 355.878 65.061 356.07 63.6579H359.14C358.661 66.7648 356.358 68.3683 352.809 68.3683C348.685 68.1679 345.711 65.3617 345.711 60.8517ZM352.616 55.54C350.698 55.54 349.356 56.8428 349.068 59.1479H355.975C355.782 56.6423 354.631 55.54 352.616 55.54Z" fill="white"/>
<path d="M365.376 46.719V67.8653H362.21V46.719H365.376Z" fill="white"/>
<path d="M375.64 62.6528V53.4331H378.805V62.2519C378.805 64.4566 379.668 65.4588 381.491 65.4588C383.218 65.4588 384.753 64.2563 384.753 62.0516V53.4331H387.918V67.864H384.753V65.5591C384.081 66.9621 382.642 68.0644 380.34 68.0644C377.655 68.1646 375.64 66.5611 375.64 62.6528Z" fill="white"/>
<path d="M395.016 53.4347V55.7394C395.783 54.3365 397.51 53.134 399.523 53.134C402.977 53.134 405.663 55.8396 405.663 60.4493V60.6496C405.663 65.2593 403.073 68.0652 399.523 68.0652C397.317 68.0652 395.783 66.9629 395.016 65.56V72.7749H391.85V53.4347H395.016ZM402.401 60.75V60.5495C402.401 57.3428 400.77 55.7394 398.756 55.7394C396.549 55.7394 394.919 57.2426 394.919 60.5495V60.75C394.919 63.9565 396.454 65.4597 398.756 65.4597C401.155 65.4597 402.401 63.8563 402.401 60.75Z" fill="white"/>
<path d="M408.54 65.9606C408.54 64.758 409.499 63.8561 410.65 63.8561C411.8 63.8561 412.76 64.758 412.76 65.9606C412.76 67.1631 411.8 68.0651 410.65 68.0651C409.499 68.0651 408.54 67.1631 408.54 65.9606ZM412.473 48.1223L411.993 61.952H409.403L408.923 48.1223H412.473Z" fill="white"/>
<path d="M261.587 14.9521H259.572V106.048H261.587V14.9521Z" fill="white"/>
</svg>
